<svg width="40" height="40" viewBox="0 0 40 40" fill="none" xmlns="http://www.w3.org/2000/svg">
<path d="M7.10743 1.5625H32.8926C35.955 1.5625 38.4375 4.04504 38.4375 7.10742V32.8926C38.4375 35.955 35.955 38.4375 32.8926 38.4375H7.10743C4.04505 38.4375 1.5625 35.955 1.5625 32.8926V7.10742C1.5625 4.04504 4.04505 1.5625 7.10743 1.5625Z" fill="#07070A"></path>
<path d="M26.7032 34.3986H20.7542V19.8821H17.7821V14.8795H20.7542V11.8759C20.7542 7.79475 22.4324 5.36792 27.2005 5.36792H31.17V10.3711H28.6888C26.8327 10.3711 26.7099 11.0703 26.7099 12.375L26.7032 14.8789H31.1981L30.6721 19.8816H26.7032V34.3986Z" fill="#E9470C"></path>
</svg>
